<?xml version="1.0" encoding="utf-8"?>
<!-- Generator: Adobe Illustrator 15.0.0, SVG Export Plug-In . SVG Version: 6.00 Build 0)  -->
<!DOCTYPE svg PUBLIC "-//W3C//DTD SVG 1.1//EN" "http://www.w3.org/Graphics/SVG/1.1/DTD/svg11.dtd">
<svg version="1.1" id="Layer_1" xmlns="http://www.w3.org/2000/svg" xmlns:xlink="http://www.w3.org/1999/xlink" x="0px" y="0px"
	 width="211.63px" height="70.278px" viewBox="0 0 211.63 70.278" enable-background="new 0 0 211.63 70.278" xml:space="preserve">
<path opacity="0.5" fill="#524B90" d="M6.023,3.308h10.334c14.914,0,24.606,3.118,29.08,9.355c1.739,1.983,2.501,5.355,2.284,10.116
	c-0.218,4.763-3.444,8.944-9.681,12.546c7.54,3.36,11.312,8.449,11.312,15.266v3.444c0,8.121-6.731,13.379-20.194,15.771
	c-3.144,0.314-6.589,0.472-10.335,0.472H1.601v-0.472c2.636-2.9,3.952-7.664,3.952-14.285V8.748L5.045,3.816L6.023,3.308z
	 M18.351,14.15v16.243c9.501,0.291,14.589-1.835,15.266-6.381c0.314-0.58,0.472-1.245,0.472-1.994c0-5.245-3.613-7.868-10.841-7.868
	H18.351z M18.351,42.25v15.736h7.362c6.911,0,10.37-2.297,10.37-6.889V49.61c0-3.747-2.309-6.212-6.925-7.396L18.351,42.25z"/>
<path opacity="0.5" fill="#524B90" d="M81.61,6.966h1.762c8.606,0,16.126,3.352,22.559,10.05c4.134,4.939,6.202,10.471,6.202,16.581
	c0,7.045-3.156,13.354-9.465,18.932c-5.748,4.671-12.522,7.005-20.322,7.005c-7.069,0-13.551-2.273-19.445-6.822
	c-3.301-2.935-5.368-5.307-6.198-7.117c-2.3-3.912-3.449-7.911-3.449-11.997v-0.514c0-6.969,2.885-13.131,8.658-18.488
	c4.352-3.692,9.024-6.04,14.013-7.045C78.223,7.162,80.118,6.966,81.61,6.966z M67.156,32.791v1.101
	c0,3.912,2.065,7.481,6.201,10.712c3.056,1.884,6.174,2.826,9.354,2.826h0.807c5.332,0,9.808-2.373,13.428-7.117
	c1.344-2.373,2.018-4.746,2.018-7.119c0-5.332-2.851-9.539-8.548-12.619c-2.473-1.077-4.94-1.614-7.411-1.614
	c-5.894,0-10.564,2.508-14.013,7.521C67.768,28.706,67.156,30.81,67.156,32.791z"/>
<g opacity="0.5">
	<path fill="#524B90" d="M190.166,3.38c6.52,0,11.076,1.636,13.672,4.909L203.45,19.39h-0.428c0-1.53-1.56-3.415-4.675-5.647
		c-2.519-1.3-4.987-1.948-7.401-1.948c-6.621,0.909-9.934,2.921-9.934,6.038v0.779c0,2.493,4.611,4.895,13.829,7.207
		c11.192,3.478,16.788,8.879,16.788,16.205c-0.909,11.321-7.205,17.139-18.893,17.451c-11.687,0.311-20.308-2.573-25.864-8.647
		l8.841-4.715c3.897,2.467,8.285,3.804,13.167,4.014c4.884,0.207,8.232-1.067,10.05-3.818c0.391-0.702,0.585-1.871,0.585-3.507
		c0-4.284-4.09-7.399-12.269-9.348c-12.232-3.61-18.348-8.362-18.348-14.257v-2.143c0-4.416,3.324-8.258,9.971-11.531
		C182.558,4.096,186.324,3.38,190.166,3.38z"/>
</g>
<g opacity="0.5">
	<path fill="#524B90" d="M114.443,1.756c2.434,0,7.272,0.728,14.519,2.183c2.937,0.364,5.427,0.546,7.468,0.546h1.26
		c4.169,0,9.677-0.727,16.532-2.182c2.267-0.364,4.113-0.546,5.54-0.546h0.168c0.445,0,1.063,0.91,1.846,2.729
		c1.845,4.867,2.769,7.414,2.769,7.637c-1.736-0.112-2.963-0.168-3.691-0.168c-2.938,0-7.217,0.602-12.841,1.804
		c-2.097,0.42-3.357,0.686-3.775,0.799c0,0.055,0.026,0.083,0.083,0.083c-0.057,1.175-0.083,2.043-0.083,2.6v44.439
		c0,0.11-0.058,0.167-0.168,0.167H130.22c-0.111,0-0.167-0.057-0.167-0.167l-0.083-47.207c-0.982,0-4.562-0.673-10.743-2.016
		c-1.789-0.335-3.806-0.503-6.041-0.503c-0.59,0-1.737,0.056-3.443,0.168c0-0.056-0.027-0.084-0.084-0.084
		c2.797-6.769,4.223-10.167,4.281-10.197L114.443,1.756z"/>
</g>
<linearGradient id="SVGID_1_" gradientUnits="userSpaceOnUse" x1="23.876" y1="68.5225" x2="23.876" y2="1.5522">
	<stop  offset="0" style="stop-color:#4EB7A3"/>
	<stop  offset="1" style="stop-color:#A3CF64"/>
</linearGradient>
<path fill="url(#SVGID_1_)" d="M4.423,1.552h10.334c14.914,0,24.606,3.118,29.08,9.355c1.739,1.983,2.501,5.355,2.284,10.116
	c-0.218,4.763-3.444,8.944-9.681,12.546c7.54,3.36,11.312,8.449,11.312,15.266v3.444c0,8.121-6.731,13.379-20.194,15.771
	c-3.144,0.314-6.589,0.472-10.335,0.472H0v-0.472c2.636-2.9,3.952-7.664,3.952-14.285V6.992L3.444,2.061L4.423,1.552z M16.75,12.395
	v16.243c9.501,0.291,14.589-1.835,15.266-6.381c0.314-0.58,0.472-1.245,0.472-1.994c0-5.245-3.613-7.868-10.841-7.868H16.75z
	 M16.75,40.494V56.23h7.362c6.911,0,10.37-2.297,10.37-6.889v-1.487c0-3.747-2.309-6.212-6.925-7.396L16.75,40.494z"/>
<linearGradient id="SVGID_2_" gradientUnits="userSpaceOnUse" x1="81.0923" y1="57.7773" x2="81.0923" y2="5.2104">
	<stop  offset="0" style="stop-color:#4EB7A3"/>
	<stop  offset="1" style="stop-color:#A3CF64"/>
</linearGradient>
<path fill="url(#SVGID_2_)" d="M80.01,5.21h1.762c8.606,0,16.126,3.352,22.559,10.05c4.134,4.939,6.202,10.471,6.202,16.581
	c0,7.045-3.156,13.354-9.465,18.932c-5.748,4.671-12.522,7.005-20.322,7.005c-7.069,0-13.551-2.273-19.445-6.822
	c-3.301-2.935-5.368-5.307-6.198-7.117c-2.3-3.912-3.449-7.911-3.449-11.997v-0.514c0-6.969,2.885-13.131,8.658-18.488
	c4.352-3.692,9.024-6.04,14.013-7.045C76.622,5.406,78.518,5.21,80.01,5.21z M65.556,31.035v1.101c0,3.912,2.065,7.481,6.201,10.712
	c3.056,1.884,6.174,2.826,9.354,2.826h0.807c5.332,0,9.808-2.373,13.428-7.117c1.344-2.373,2.018-4.746,2.018-7.119
	c0-5.332-2.851-9.539-8.548-12.619c-2.473-1.077-4.94-1.614-7.411-1.614c-5.894,0-10.564,2.508-14.013,7.521
	C66.167,26.95,65.556,29.054,65.556,31.035z"/>
<g>
	<linearGradient id="SVGID_3_" gradientUnits="userSpaceOnUse" x1="187.8306" y1="57.9385" x2="187.8306" y2="1.8213">
		<stop  offset="0" style="stop-color:#4EB7A3"/>
		<stop  offset="1" style="stop-color:#A3CF64"/>
	</linearGradient>
	<path fill="url(#SVGID_3_)" d="M188.745,1.821c6.52,0,11.076,1.637,13.672,4.909l-0.388,11.101h-0.428
		c0-1.53-1.56-3.415-4.675-5.647c-2.519-1.3-4.987-1.948-7.401-1.948c-6.622,0.91-9.934,2.921-9.934,6.038v0.779
		c0,2.493,4.611,4.895,13.829,7.208c11.192,3.478,16.788,8.879,16.788,16.204c-0.909,11.322-7.206,17.14-18.893,17.452
		c-11.687,0.31-20.308-2.574-25.864-8.648l8.841-4.715c3.897,2.468,8.285,3.805,13.167,4.015c4.883,0.206,8.232-1.067,10.05-3.818
		c0.391-0.702,0.584-1.871,0.584-3.507c0-4.285-4.089-7.4-12.269-9.348c-12.231-3.61-18.347-8.362-18.347-14.257v-2.143
		c0-4.415,3.324-8.258,9.971-11.531C181.137,2.537,184.903,1.821,188.745,1.821z"/>
</g>
<g>
	<linearGradient id="SVGID_4_" gradientUnits="userSpaceOnUse" x1="135.5005" y1="60.0898" x2="135.5005" y2="0">
		<stop  offset="0" style="stop-color:#4EB7A3"/>
		<stop  offset="1" style="stop-color:#A3CF64"/>
	</linearGradient>
	<path fill="url(#SVGID_4_)" d="M112.843,0c2.434,0,7.272,0.728,14.519,2.183c2.937,0.364,5.427,0.546,7.468,0.546h1.26
		c4.169,0,9.677-0.727,16.532-2.182C154.888,0.183,156.734,0,158.161,0h0.168c0.445,0,1.063,0.91,1.846,2.729
		c1.845,4.867,2.769,7.414,2.769,7.637c-1.736-0.112-2.963-0.168-3.691-0.168c-2.938,0-7.217,0.602-12.841,1.804
		c-2.097,0.42-3.357,0.686-3.775,0.799c0,0.055,0.026,0.083,0.083,0.083c-0.057,1.175-0.083,2.043-0.083,2.6v44.439
		c0,0.11-0.058,0.167-0.168,0.167h-13.849c-0.111,0-0.167-0.057-0.167-0.167l-0.083-47.207c-0.982,0-4.562-0.673-10.743-2.016
		c-1.789-0.335-3.806-0.503-6.041-0.503c-0.59,0-1.737,0.056-3.443,0.168c0-0.056-0.027-0.084-0.084-0.084
		c2.797-6.769,4.223-10.167,4.281-10.197L112.843,0z"/>
</g>
</svg>
