<?xml version="1.0" encoding="utf-8"?>
<!-- Generator: Adobe Illustrator 15.0.0, SVG Export Plug-In . SVG Version: 6.00 Build 0)  -->
<!DOCTYPE svg PUBLIC "-//W3C//DTD SVG 1.1//EN" "http://www.w3.org/Graphics/SVG/1.1/DTD/svg11.dtd">
<svg version="1.1" id="Layer_1" xmlns="http://www.w3.org/2000/svg" xmlns:xlink="http://www.w3.org/1999/xlink" x="0px" y="0px"
	 width="358.207px" height="66.019px" viewBox="0 0 358.207 66.019" enable-background="new 0 0 358.207 66.019"
	 xml:space="preserve">
<g opacity="0.5">
	<path fill="#514A8F" d="M35.648,2h0.563c5.156,0,10.172,0.973,15.047,2.918l0.105,0.211v13.465h-0.211
		c-4.5-3.445-9.551-5.168-15.152-5.168c-7.266,0-13.395,2.883-18.387,8.648c-2.836,3.727-4.254,7.723-4.254,11.988
		c0,7.008,3.503,12.762,10.512,17.262c3.96,2.18,8.039,3.27,12.234,3.27c5.813,0,10.969-1.875,15.469-5.625
		c2.132-2.344,3.668-4.699,4.605-7.066h0.211c0.164,1.102,0.246,2.379,0.246,3.832v0.563c0,0.961-0.118,1.781-0.352,2.461
		c2.648-2.813,4.184-4.98,4.605-6.504h0.211c0.234,1.359,0.352,2.777,0.352,4.254v0.211c0,7.898-3.704,13.477-11.109,16.734
		c-4.43,1.711-9.246,2.566-14.449,2.566c-10.266,0-19.243-3.621-26.93-10.863C2.988,48.757,0,41.726,0,34.062
		C0,24.477,4.336,16.25,13.008,9.383C19.992,4.461,27.539,2,35.648,2z"/>
	<path fill="#514A8F" d="M75.938,5.094V25.59h16.172V8.996l12.902-3.973v50.554H92.109V36.207H75.973v19.371H63l0.035-46.125
		L75.938,5.094z"/>
	<path fill="#514A8F" d="M128.355,5.059c8.555,0,14.156,2.813,16.805,8.438c0.797,1.453,1.195,3.809,1.195,7.066v34.875
		c0,0.094-0.047,0.141-0.141,0.141h-12.551c-0.117,0-0.176-0.047-0.176-0.141V41.058c-2.086-0.727-4.688-1.09-7.805-1.09
		c-0.398,0.094-1.184,0.234-2.355,0.422v15.188c0,0.094-0.059,0.141-0.176,0.141H110.32c-0.094,0-0.141-0.047-0.141-0.141V19.156
		c0-6.234,3.199-10.535,9.598-12.902C122.52,5.457,125.379,5.059,128.355,5.059z M123.328,21.09v10.828
		c2.109-0.938,3.809-1.406,5.098-1.406c1.406,0.094,3.211,0.27,5.414,0.527V20.563c0-1.313-0.656-2.438-1.969-3.375
		c-1.219-0.328-2.391-0.492-3.516-0.492C125.004,16.695,123.328,18.16,123.328,21.09z"/>
	<path fill="#514A8F" d="M196.417,5.199v51.679l-33.89-23.871v22.57l-12.727-0.07V8.504h0.211l33.679,20.777V8.75L196.417,5.199z"/>
	<path fill="#514A8F" d="M247.042,5.199v51.679l-33.891-23.871v22.57l-12.727-0.07V8.504h0.211l33.68,20.777V8.75L247.042,5.199z"/>
	<path fill="#514A8F" d="M251.296,5.375h22.254l5.906,10.477c-0.094,0-0.141,0.047-0.141,0.141l-0.246-0.141h-14.555v8.754h9.563
		c0.164,0.047,0.246,0.141,0.246,0.281v10.089c0,0.164-0.082,0.246-0.246,0.246h-9.703v9.563h15.855l-0.035,10.828h-28.898
		c-0.164,0-0.246-0.082-0.246-0.246V5.621C251.074,5.457,251.156,5.375,251.296,5.375z"/>
	<path fill="#514A8F" d="M284.132,5.059h11.883c0.305,0.047,0.457,0.199,0.457,0.457v41.203h18.879v0.492
		c-3.797,5.227-5.895,7.934-6.293,8.121l-25.383,0.316V5.516C283.722,5.211,283.875,5.059,284.132,5.059z"/>
	<path fill="#514A8F" d="M338.835,4.883c5.883,0,9.996,1.477,12.34,4.43l-0.352,10.02h-0.387c0-1.383-1.406-3.082-4.219-5.098
		c-2.273-1.172-4.5-1.758-6.68-1.758c-5.977,0.82-8.965,2.637-8.965,5.449v0.703c0,2.25,4.16,4.418,12.48,6.504
		c10.102,3.141,15.152,8.016,15.152,14.625c-0.82,10.219-6.504,15.469-17.051,15.75s-18.328-2.32-23.344-7.805l7.98-4.254
		c3.516,2.227,7.477,3.434,11.883,3.621s7.43-0.961,9.07-3.445c0.352-0.633,0.527-1.688,0.527-3.164
		c0-3.867-3.691-6.679-11.074-8.437c-11.039-3.258-16.559-7.547-16.559-12.867v-1.934c0-3.984,3-7.453,9-10.406
		C331.968,5.527,335.367,4.883,338.835,4.883z"/>
</g>
<g>
	<linearGradient id="SVGID_1_" gradientUnits="userSpaceOnUse" x1="31.2612" y1="64.019" x2="31.2612" y2="0">
		<stop  offset="0" style="stop-color:#4EB7A3"/>
		<stop  offset="1" style="stop-color:#A0E160"/>
	</linearGradient>
	<path fill="url(#SVGID_1_)" d="M36.183,0h0.563c5.156,0,10.172,0.973,15.047,2.918l0.105,0.211v13.465h-0.211
		c-4.5-3.445-9.551-5.168-15.152-5.168c-7.266,0-13.395,2.883-18.387,8.648c-2.836,3.727-4.254,7.723-4.254,11.988
		c0,7.008,3.503,12.761,10.512,17.261c3.96,2.18,8.039,3.27,12.234,3.27c5.813,0,10.969-1.875,15.469-5.625
		c2.132-2.343,3.668-4.698,4.605-7.066h0.211c0.164,1.103,0.246,2.379,0.246,3.832v0.563c0,0.962-0.118,1.781-0.352,2.461
		c2.648-2.813,4.184-4.979,4.605-6.504h0.211c0.234,1.359,0.352,2.777,0.352,4.254v0.211c0,7.898-3.704,13.477-11.109,16.734
		c-4.43,1.711-9.246,2.566-14.449,2.566c-10.266,0-19.243-3.621-26.93-10.863c-5.977-6.398-8.965-13.43-8.965-21.093
		c0-9.585,4.336-17.812,13.008-24.68C20.526,2.461,28.074,0,36.183,0z"/>
	<linearGradient id="SVGID_2_" gradientUnits="userSpaceOnUse" x1="84.5405" y1="53.5776" x2="84.5405" y2="3.0234">
		<stop  offset="0" style="stop-color:#4EB7A3"/>
		<stop  offset="1" style="stop-color:#A0E160"/>
	</linearGradient>
	<path fill="url(#SVGID_2_)" d="M76.472,3.094V23.59h16.172V6.996l12.902-3.973v50.554H92.644V34.207H76.507v19.371H63.535
		L63.57,7.453L76.472,3.094z"/>
	<linearGradient id="SVGID_3_" gradientUnits="userSpaceOnUse" x1="128.8022" y1="53.7183" x2="128.8022" y2="3.0586">
		<stop  offset="0" style="stop-color:#4EB7A3"/>
		<stop  offset="1" style="stop-color:#A0E160"/>
	</linearGradient>
	<path fill="url(#SVGID_3_)" d="M128.89,3.059c8.555,0,14.156,2.813,16.805,8.438c0.797,1.454,1.195,3.809,1.195,7.066v34.875
		c0,0.094-0.047,0.141-0.141,0.141h-12.551c-0.117,0-0.176-0.047-0.176-0.141V39.058c-2.086-0.726-4.688-1.09-7.805-1.09
		c-0.398,0.094-1.184,0.234-2.355,0.422v15.188c0,0.094-0.059,0.141-0.176,0.141h-12.832c-0.094,0-0.141-0.047-0.141-0.141V17.156
		c0-6.234,3.199-10.535,9.598-12.902C123.054,3.458,125.914,3.059,128.89,3.059z M123.863,19.09v10.828
		c2.109-0.937,3.809-1.406,5.098-1.406c1.406,0.094,3.211,0.27,5.414,0.527V18.563c0-1.313-0.656-2.438-1.969-3.375
		c-1.219-0.328-2.391-0.492-3.516-0.492C125.539,14.695,123.863,16.16,123.863,19.09z"/>
	<linearGradient id="SVGID_4_" gradientUnits="userSpaceOnUse" x1="173.644" y1="54.8784" x2="173.644" y2="3.1992">
		<stop  offset="0" style="stop-color:#4EB7A3"/>
		<stop  offset="1" style="stop-color:#A0E160"/>
	</linearGradient>
	<path fill="url(#SVGID_4_)" d="M196.953,3.199v51.679l-33.891-23.871v22.57l-12.727-0.07V6.504h0.211l33.68,20.777V6.75
		L196.953,3.199z"/>
	<linearGradient id="SVGID_5_" gradientUnits="userSpaceOnUse" x1="224.269" y1="54.8784" x2="224.269" y2="3.1992">
		<stop  offset="0" style="stop-color:#4EB7A3"/>
		<stop  offset="1" style="stop-color:#A0E160"/>
	</linearGradient>
	<path fill="url(#SVGID_5_)" d="M247.578,3.199v51.679l-33.891-23.871v22.57l-12.727-0.07V6.504h0.211l33.68,20.777V6.75
		L247.578,3.199z"/>
	<linearGradient id="SVGID_6_" gradientUnits="userSpaceOnUse" x1="266.1753" y1="53.6128" x2="266.1753" y2="3.375">
		<stop  offset="0" style="stop-color:#4EB7A3"/>
		<stop  offset="1" style="stop-color:#A0E160"/>
	</linearGradient>
	<path fill="url(#SVGID_6_)" d="M251.832,3.375h22.254l5.906,10.477c-0.094,0-0.141,0.047-0.141,0.141l-0.246-0.141H265.05v8.754
		h9.563c0.164,0.047,0.246,0.141,0.246,0.281v10.09c0,0.164-0.082,0.246-0.246,0.246h-9.703v9.563h15.855l-0.035,10.828h-28.898
		c-0.164,0-0.246-0.082-0.246-0.246V3.621C251.609,3.458,251.691,3.375,251.832,3.375z"/>
	<linearGradient id="SVGID_7_" gradientUnits="userSpaceOnUse" x1="300.0483" y1="53.6479" x2="300.0483" y2="3.0586">
		<stop  offset="0" style="stop-color:#4EB7A3"/>
		<stop  offset="1" style="stop-color:#A0E160"/>
	</linearGradient>
	<path fill="url(#SVGID_7_)" d="M284.667,3.059h11.883c0.305,0.047,0.457,0.199,0.457,0.457v41.203h18.879v0.492
		c-3.797,5.227-5.895,7.934-6.293,8.121l-25.383,0.316V3.516C284.257,3.211,284.41,3.059,284.667,3.059z"/>
	<linearGradient id="SVGID_8_" gradientUnits="userSpaceOnUse" x1="338.5444" y1="53.5278" x2="338.5444" y2="2.8828">
		<stop  offset="0" style="stop-color:#4EB7A3"/>
		<stop  offset="1" style="stop-color:#A0E160"/>
	</linearGradient>
	<path fill="url(#SVGID_8_)" d="M339.371,2.883c5.883,0,9.996,1.477,12.34,4.43l-0.352,10.02h-0.387
		c0-1.383-1.406-3.082-4.219-5.098c-2.273-1.172-4.5-1.758-6.68-1.758c-5.977,0.821-8.965,2.637-8.965,5.449v0.703
		c0,2.25,4.16,4.418,12.48,6.504c10.102,3.141,15.152,8.016,15.152,14.625c-0.82,10.219-6.504,15.469-17.051,15.75
		s-18.328-2.32-23.344-7.805l7.98-4.254c3.516,2.228,7.477,3.434,11.883,3.621c4.406,0.188,7.43-0.961,9.07-3.445
		c0.352-0.633,0.527-1.688,0.527-3.164c0-3.867-3.691-6.679-11.074-8.437c-11.039-3.257-16.559-7.546-16.559-12.867v-1.934
		c0-3.984,3-7.453,9-10.406C332.503,3.528,335.902,2.883,339.371,2.883z"/>
</g>
</svg>
