<?xml version="1.0" encoding="utf-8"?>
<!-- Generator: Adobe Illustrator 15.0.0, SVG Export Plug-In . SVG Version: 6.00 Build 0)  -->
<!DOCTYPE svg PUBLIC "-//W3C//DTD SVG 1.1//EN" "http://www.w3.org/Graphics/SVG/1.1/DTD/svg11.dtd">
<svg version="1.1" id="Layer_1" xmlns="http://www.w3.org/2000/svg" xmlns:xlink="http://www.w3.org/1999/xlink" x="0px" y="0px"
	 width="196.77px" height="66.441px" viewBox="0 0 196.77 66.441" enable-background="new 0 0 196.77 66.441" xml:space="preserve">
<g opacity="0.5">
	<path fill="#514A8F" d="M26.402,48.828c2.789,3.282,6.703,4.887,11.742,4.816c3.375,0,6.715-1.758,10.02-5.273
		c3.586-2.391,5.379-6.938,5.379-13.64v-20.18H29.004V2h38.461v32.73c0,9.304-2.285,16.875-6.855,22.71c-5.648,6-13.137,9-22.465,9
		c-8.648,0-15.633-2.578-20.953-7.734c-2.157-1.828-4.348-5.401-6.574-10.723c-1.289-3.703-3.293-6.27-6.012-7.699
		c-0.844-0.422-1.665-0.633-2.461-0.633H1.547L0,39.828c3.211-1.969,6.445-2.953,9.703-2.953h1.09
		c5.718,0,10.336,2.988,13.852,8.965C25.395,46.872,25.98,47.867,26.402,48.828z"/>
	<path fill="#514A8F" d="M101.285,5.305h1.688c8.25,0,15.457,3.211,21.621,9.633c3.961,4.734,5.941,10.032,5.941,15.891
		c0,6.75-3.023,12.796-9.07,18.14c-5.508,4.478-12,6.715-19.477,6.715c-6.773,0-12.985-2.18-18.633-6.539
		c-3.164-2.813-5.145-5.085-5.941-6.82c-2.203-3.749-3.305-7.581-3.305-11.496v-0.492c0-6.68,2.765-12.586,8.297-17.719
		c4.171-3.539,8.648-5.789,13.43-6.75C98.039,5.493,99.855,5.305,101.285,5.305z M87.434,30.055v1.055
		c0,3.75,1.98,7.171,5.941,10.265c2.93,1.806,5.918,2.707,8.965,2.707h0.773c5.109,0,9.398-2.272,12.867-6.82
		c1.289-2.272,1.934-4.546,1.934-6.82c0-5.109-2.73-9.141-8.191-12.094c-2.367-1.031-4.734-1.547-7.102-1.547
		c-5.648,0-10.125,2.403-13.43,7.207C88.019,26.141,87.434,28.156,87.434,30.055z"/>
	<path fill="#514A8F" d="M132.855,4.918h11.953c0.141,0.023,0.211,0.094,0.211,0.211v50.343c0,0.141-0.07,0.211-0.211,0.211h-11.953
		c-0.141,0-0.211-0.07-0.211-0.211V5.129C132.668,4.988,132.738,4.918,132.855,4.918z"/>
	<path fill="#514A8F" d="M196.77,5.305v51.679l-33.891-23.871v22.57l-12.727-0.07V8.609h0.211l33.68,20.777V8.855L196.77,5.305z"/>
</g>
<g>
	<linearGradient id="SVGID_1_" gradientUnits="userSpaceOnUse" x1="33.7324" y1="64.4409" x2="33.7324" y2="0">
		<stop  offset="0" style="stop-color:#4EB7A3"/>
		<stop  offset="1" style="stop-color:#A0E160"/>
	</linearGradient>
	<path fill="url(#SVGID_1_)" d="M26.402,46.828c2.789,3.282,6.703,4.887,11.742,4.816c3.375,0,6.715-1.758,10.02-5.273
		c3.586-2.391,5.379-6.938,5.379-13.64v-20.18H29.004V0h38.461v32.73c0,9.304-2.285,16.875-6.855,22.71c-5.648,6-13.137,9-22.465,9
		c-8.648,0-15.633-2.578-20.953-7.734c-2.157-1.828-4.348-5.401-6.574-10.723c-1.289-3.703-3.293-6.27-6.012-7.699
		c-0.844-0.422-1.665-0.633-2.461-0.633H1.547L0,37.828c3.211-1.969,6.445-2.953,9.703-2.953h1.09
		c5.718,0,10.336,2.988,13.852,8.965C25.395,44.872,25.98,45.867,26.402,46.828z"/>
	<linearGradient id="SVGID_2_" gradientUnits="userSpaceOnUse" x1="102.3223" y1="53.6831" x2="102.3223" y2="3.3047">
		<stop  offset="0" style="stop-color:#4EB7A3"/>
		<stop  offset="1" style="stop-color:#A0E160"/>
	</linearGradient>
	<path fill="url(#SVGID_2_)" d="M101.285,3.305h1.688c8.25,0,15.457,3.211,21.621,9.633c3.961,4.734,5.941,10.032,5.941,15.891
		c0,6.75-3.023,12.796-9.07,18.14c-5.508,4.478-12,6.715-19.477,6.715c-6.773,0-12.985-2.18-18.633-6.539
		c-3.164-2.813-5.145-5.085-5.941-6.82c-2.203-3.749-3.305-7.581-3.305-11.496v-0.492c0-6.68,2.765-12.586,8.297-17.719
		c4.171-3.539,8.648-5.789,13.43-6.75C98.039,3.493,99.855,3.305,101.285,3.305z M87.434,28.055v1.055
		c0,3.75,1.98,7.171,5.941,10.265c2.93,1.806,5.918,2.707,8.965,2.707h0.773c5.109,0,9.398-2.272,12.867-6.82
		c1.289-2.272,1.934-4.546,1.934-6.82c0-5.109-2.73-9.141-8.191-12.094c-2.367-1.031-4.734-1.547-7.102-1.547
		c-5.648,0-10.125,2.403-13.43,7.207C88.019,24.141,87.434,26.156,87.434,28.055z"/>
	<linearGradient id="SVGID_3_" gradientUnits="userSpaceOnUse" x1="138.832" y1="53.6831" x2="138.832" y2="2.918">
		<stop  offset="0" style="stop-color:#4EB7A3"/>
		<stop  offset="1" style="stop-color:#A0E160"/>
	</linearGradient>
	<path fill="url(#SVGID_3_)" d="M132.855,2.918h11.953c0.141,0.023,0.211,0.094,0.211,0.211v50.343c0,0.141-0.07,0.211-0.211,0.211
		h-11.953c-0.141,0-0.211-0.07-0.211-0.211V3.129C132.668,2.988,132.738,2.918,132.855,2.918z"/>
	<linearGradient id="SVGID_4_" gradientUnits="userSpaceOnUse" x1="173.4609" y1="54.9839" x2="173.4609" y2="3.3047">
		<stop  offset="0" style="stop-color:#4EB7A3"/>
		<stop  offset="1" style="stop-color:#A0E160"/>
	</linearGradient>
	<path fill="url(#SVGID_4_)" d="M196.77,3.305v51.679l-33.891-23.871v22.57l-12.727-0.07V6.609h0.211l33.68,20.777V6.855
		L196.77,3.305z"/>
</g>
</svg>
