<?xml version="1.0" encoding="utf-8"?>
<!-- Generator: Adobe Illustrator 15.0.0, SVG Export Plug-In . SVG Version: 6.00 Build 0)  -->
<!DOCTYPE svg PUBLIC "-//W3C//DTD SVG 1.1//EN" "http://www.w3.org/Graphics/SVG/1.1/DTD/svg11.dtd">
<svg version="1.1" id="Layer_1" xmlns="http://www.w3.org/2000/svg" xmlns:xlink="http://www.w3.org/1999/xlink" x="0px" y="0px"
	 width="221.414px" height="70.342px" viewBox="0 0 221.414 70.342" enable-background="new 0 0 221.414 70.342"
	 xml:space="preserve">
<g opacity="0.5">
	<path fill="#514A8F" d="M62.789,69.324v0.492c-13.289-3.141-24.27-9.844-32.941-20.109L17.332,38.773
		c11.414-1.406,17.671-3.492,18.773-6.258c1.406-1.359,2.109-3.094,2.109-5.203c0-7.5-8.473-11.941-25.418-13.324v44.156H0
		L0.141,2.809l0.246-0.527C5.027,2.094,8.684,2,11.355,2h4.957c17.93,0,29.566,5.391,34.91,16.172
		c0.867,2.813,1.394,5.508,1.582,8.086c0,8.742-3.82,14.391-11.461,16.945h-0.281c6.961,6.656,14.18,12.281,21.656,16.875v0.035
		c1.218,0.352,3.011,0.691,5.379,1.02c1.898,0.094,3.879-0.105,5.941-0.598c0,0.211-0.012,0.533-0.035,0.967
		c-0.023,0.434-0.34,0.979-0.949,1.635c1.875-0.023,3.691-0.352,5.449-0.984l0.035-0.07l0.176,0.07
		c-0.023,0.047-0.176,0.633-0.457,1.758c-1.477,2.93-4.219,5.051-8.227,6.363c-3.141,0.164-5.532,0.035-7.172-0.387L62.789,69.324z"
		/>
	<path fill="#514A8F" d="M82.898,5.586h1.688c8.25,0,15.457,3.211,21.621,9.633c3.96,4.734,5.941,10.032,5.941,15.891
		c0,6.75-3.023,12.797-9.07,18.141c-5.508,4.477-12,6.715-19.477,6.715c-6.773,0-12.985-2.18-18.633-6.539
		c-3.164-2.813-5.145-5.086-5.941-6.82c-2.203-3.75-3.305-7.582-3.305-11.496v-0.492c0-6.68,2.765-12.586,8.297-17.719
		c4.171-3.539,8.648-5.789,13.43-6.75C79.652,5.774,81.469,5.586,82.898,5.586z M69.047,30.336v1.055
		c0,3.75,1.98,7.172,5.941,10.266c2.93,1.805,5.918,2.707,8.965,2.707h0.773c5.109,0,9.398-2.273,12.867-6.82
		c1.289-2.273,1.934-4.547,1.934-6.82c0-5.109-2.73-9.141-8.191-12.094c-2.368-1.031-4.734-1.547-7.102-1.547
		c-5.648,0-10.125,2.403-13.43,7.207C69.632,26.422,69.047,28.438,69.047,30.336z"/>
	<path fill="#514A8F" d="M114.715,5.445h11.883c0.305,0.047,0.457,0.199,0.457,0.457v41.203h18.879v0.492
		c-3.797,5.227-5.895,7.934-6.293,8.121l-25.383,0.316V5.902C114.305,5.598,114.457,5.445,114.715,5.445z"/>
	<path fill="#514A8F" d="M148.465,5.762h22.254l5.906,10.477c-0.094,0-0.141,0.047-0.141,0.141l-0.246-0.141h-14.555v8.754h9.563
		c0.164,0.047,0.246,0.141,0.246,0.281v10.09c0,0.164-0.082,0.246-0.246,0.246h-9.703v9.563h15.855L177.363,56h-28.898
		c-0.164,0-0.246-0.082-0.246-0.246V6.008C148.242,5.844,148.324,5.762,148.465,5.762z"/>
	<path fill="#514A8F" d="M202.043,5.27c5.883,0,9.996,1.477,12.34,4.43l-0.352,10.02h-0.387c0-1.383-1.406-3.082-4.219-5.098
		c-2.273-1.172-4.5-1.758-6.68-1.758c-5.977,0.821-8.965,2.637-8.965,5.449v0.703c0,2.25,4.16,4.418,12.48,6.504
		c10.102,3.141,15.152,8.016,15.152,14.625c-0.82,10.219-6.504,15.469-17.051,15.75s-18.328-2.32-23.344-7.805l7.98-4.254
		c3.516,2.227,7.477,3.434,11.883,3.621s7.43-0.961,9.07-3.445c0.352-0.633,0.527-1.688,0.527-3.164
		c0-3.867-3.691-6.68-11.074-8.438c-11.039-3.257-16.559-7.546-16.559-12.867v-1.934c0-3.984,3-7.453,9-10.406
		C195.176,5.915,198.574,5.27,202.043,5.27z"/>
</g>
<g>
	<linearGradient id="SVGID_1_" gradientUnits="userSpaceOnUse" x1="39.3574" y1="68.3423" x2="39.3574" y2="0">
		<stop  offset="0" style="stop-color:#4EB7A3"/>
		<stop  offset="1" style="stop-color:#A0E160"/>
	</linearGradient>
	<path fill="url(#SVGID_1_)" d="M62.789,67.324v0.492c-13.289-3.141-24.27-9.844-32.941-20.109L17.332,36.773
		c11.414-1.406,17.671-3.492,18.773-6.258c1.406-1.359,2.109-3.094,2.109-5.203c0-7.5-8.473-11.941-25.418-13.324v44.156H0
		L0.141,0.809l0.246-0.527C5.027,0.094,8.684,0,11.355,0h4.957c17.93,0,29.566,5.391,34.91,16.172
		c0.867,2.813,1.394,5.508,1.582,8.086c0,8.742-3.82,14.391-11.461,16.945h-0.281c6.961,6.656,14.18,12.281,21.656,16.875v0.035
		c1.218,0.352,3.011,0.691,5.379,1.02c1.898,0.094,3.879-0.105,5.941-0.598c0,0.211-0.012,0.533-0.035,0.967
		c-0.023,0.434-0.34,0.979-0.949,1.635c1.875-0.023,3.691-0.352,5.449-0.984l0.035-0.07l0.176,0.07
		c-0.023,0.047-0.176,0.633-0.457,1.758c-1.477,2.93-4.219,5.051-8.227,6.363c-3.141,0.164-5.532,0.035-7.172-0.387L62.789,67.324z"
		/>
	<linearGradient id="SVGID_2_" gradientUnits="userSpaceOnUse" x1="83.9355" y1="53.9648" x2="83.9355" y2="3.5859">
		<stop  offset="0" style="stop-color:#4EB7A3"/>
		<stop  offset="1" style="stop-color:#A0E160"/>
	</linearGradient>
	<path fill="url(#SVGID_2_)" d="M82.898,3.586h1.688c8.25,0,15.457,3.211,21.621,9.633c3.96,4.734,5.941,10.032,5.941,15.891
		c0,6.75-3.023,12.797-9.07,18.141c-5.508,4.477-12,6.715-19.477,6.715c-6.773,0-12.985-2.18-18.633-6.539
		c-3.164-2.813-5.145-5.086-5.941-6.82c-2.203-3.75-3.305-7.582-3.305-11.496v-0.492c0-6.68,2.765-12.586,8.297-17.719
		c4.171-3.539,8.648-5.789,13.43-6.75C79.652,3.774,81.469,3.586,82.898,3.586z M69.047,28.336v1.055
		c0,3.75,1.98,7.172,5.941,10.266c2.93,1.805,5.918,2.707,8.965,2.707h0.773c5.109,0,9.398-2.273,12.867-6.82
		c1.289-2.273,1.934-4.547,1.934-6.82c0-5.109-2.73-9.141-8.191-12.094c-2.368-1.031-4.734-1.547-7.102-1.547
		c-5.648,0-10.125,2.403-13.43,7.207C69.632,24.422,69.047,26.438,69.047,28.336z"/>
	<linearGradient id="SVGID_3_" gradientUnits="userSpaceOnUse" x1="130.0957" y1="54.0352" x2="130.0957" y2="3.4453">
		<stop  offset="0" style="stop-color:#4EB7A3"/>
		<stop  offset="1" style="stop-color:#A0E160"/>
	</linearGradient>
	<path fill="url(#SVGID_3_)" d="M114.715,3.445h11.883c0.305,0.047,0.457,0.199,0.457,0.457v41.203h18.879v0.492
		c-3.797,5.227-5.895,7.934-6.293,8.121l-25.383,0.316V3.902C114.305,3.598,114.457,3.445,114.715,3.445z"/>
	<linearGradient id="SVGID_4_" gradientUnits="userSpaceOnUse" x1="162.8086" y1="54" x2="162.8086" y2="3.7617">
		<stop  offset="0" style="stop-color:#4EB7A3"/>
		<stop  offset="1" style="stop-color:#A0E160"/>
	</linearGradient>
	<path fill="url(#SVGID_4_)" d="M148.465,3.762h22.254l5.906,10.477c-0.094,0-0.141,0.047-0.141,0.141l-0.246-0.141h-14.555v8.754
		h9.563c0.164,0.047,0.246,0.141,0.246,0.281v10.09c0,0.164-0.082,0.246-0.246,0.246h-9.703v9.563h15.855L177.363,54h-28.898
		c-0.164,0-0.246-0.082-0.246-0.246V4.008C148.242,3.844,148.324,3.762,148.465,3.762z"/>
	<linearGradient id="SVGID_5_" gradientUnits="userSpaceOnUse" x1="201.2168" y1="53.915" x2="201.2168" y2="3.2695">
		<stop  offset="0" style="stop-color:#4EB7A3"/>
		<stop  offset="1" style="stop-color:#A0E160"/>
	</linearGradient>
	<path fill="url(#SVGID_5_)" d="M202.043,3.27c5.883,0,9.996,1.477,12.34,4.43l-0.352,10.02h-0.387c0-1.383-1.406-3.082-4.219-5.098
		c-2.273-1.172-4.5-1.758-6.68-1.758c-5.977,0.821-8.965,2.637-8.965,5.449v0.703c0,2.25,4.16,4.418,12.48,6.504
		c10.102,3.141,15.152,8.016,15.152,14.625c-0.82,10.219-6.504,15.469-17.051,15.75s-18.328-2.32-23.344-7.805l7.98-4.254
		c3.516,2.227,7.477,3.434,11.883,3.621s7.43-0.961,9.07-3.445c0.352-0.633,0.527-1.688,0.527-3.164
		c0-3.867-3.691-6.68-11.074-8.438c-11.039-3.257-16.559-7.546-16.559-12.867v-1.934c0-3.984,3-7.453,9-10.406
		C195.176,3.915,198.574,3.27,202.043,3.27z"/>
</g>
</svg>
