<?xml version="1.0" encoding="utf-8"?>
<!-- Generator: Adobe Illustrator 15.0.0, SVG Export Plug-In . SVG Version: 6.00 Build 0)  -->
<!DOCTYPE svg PUBLIC "-//W3C//DTD SVG 1.1//EN" "http://www.w3.org/Graphics/SVG/1.1/DTD/svg11.dtd">
<svg version="1.1" id="Layer_1" xmlns="http://www.w3.org/2000/svg" xmlns:xlink="http://www.w3.org/1999/xlink" x="0px" y="0px"
	 width="215.051px" height="70.342px" viewBox="0 0 215.051 70.342" enable-background="new 0 0 215.051 70.342"
	 xml:space="preserve">
<g opacity="0.5">
	<path fill="#514A8F" d="M63.035,69.324v0.492c-13.289-3.141-24.27-9.844-32.941-20.109L17.578,38.773
		c11.414-1.406,17.672-3.492,18.773-6.258c1.406-1.359,2.109-3.094,2.109-5.203c0-7.5-8.473-11.941-25.418-13.324v44.156H0.246
		L0.387,2.809l0.246-0.527C5.273,2.094,8.93,2,11.602,2h4.957c17.93,0,29.566,5.391,34.91,16.172
		c0.867,2.813,1.395,5.508,1.582,8.086c0,8.742-3.82,14.391-11.461,16.945h-0.281c6.961,6.656,14.18,12.281,21.656,16.875v0.035
		c1.219,0.352,3.012,0.691,5.379,1.02c1.898,0.094,3.879-0.105,5.941-0.598c0,0.211-0.012,0.533-0.035,0.967
		s-0.34,0.979-0.949,1.635c1.875-0.023,3.691-0.352,5.449-0.984l0.035-0.07l0.176,0.07c-0.023,0.047-0.176,0.633-0.457,1.758
		c-1.477,2.93-4.219,5.051-8.227,6.363c-3.141,0.164-5.531,0.035-7.172-0.387L63.035,69.324z"/>
	<path fill="#514A8F" d="M68.66,28.895c0.586,9.445,4.277,14.25,11.074,14.414c6.563-0.75,10.242-5.555,11.039-14.414V5.656h12.34
		v23.238c0,8.578-2.426,15.387-7.277,20.426c-4.383,4.547-9.727,6.82-16.031,6.82c-6.352,0-11.73-2.273-16.137-6.82
		c-4.898-5.039-7.348-11.848-7.348-20.426V5.656h12.34V28.895z"/>
	<path fill="#514A8F" d="M108.352,5.445h11.883c0.305,0.047,0.457,0.199,0.457,0.457v41.203h18.879v0.492
		c-3.797,5.227-5.895,7.934-6.293,8.121l-25.383,0.316V5.902C107.941,5.598,108.094,5.445,108.352,5.445z"/>
	<path fill="#514A8F" d="M142.102,5.762h22.254l5.906,10.477c-0.094,0-0.141,0.047-0.141,0.141l-0.246-0.141H155.32v8.754h9.563
		c0.164,0.047,0.246,0.141,0.246,0.281v10.09c0,0.164-0.082,0.246-0.246,0.246h-9.703v9.563h15.855L171,56h-28.898
		c-0.164,0-0.246-0.082-0.246-0.246V6.008C141.879,5.844,141.961,5.762,142.102,5.762z"/>
	<path fill="#514A8F" d="M195.68,5.27c5.883,0,9.996,1.477,12.34,4.43l-0.352,10.02h-0.387c0-1.383-1.406-3.082-4.219-5.098
		c-2.273-1.172-4.5-1.758-6.68-1.758c-5.977,0.821-8.965,2.637-8.965,5.449v0.703c0,2.25,4.16,4.418,12.48,6.504
		c10.102,3.141,15.152,8.016,15.152,14.625c-0.82,10.219-6.504,15.469-17.051,15.75s-18.328-2.32-23.344-7.805l7.98-4.254
		c3.516,2.227,7.477,3.434,11.883,3.621s7.43-0.961,9.07-3.445c0.352-0.633,0.527-1.688,0.527-3.164
		c0-3.867-3.691-6.68-11.074-8.438c-11.039-3.257-16.559-7.546-16.559-12.867v-1.934c0-3.984,3-7.453,9-10.406
		C188.813,5.915,192.211,5.27,195.68,5.27z"/>
</g>
<g>
	<linearGradient id="SVGID_1_" gradientUnits="userSpaceOnUse" x1="39.3574" y1="68.3423" x2="39.3574" y2="0">
		<stop  offset="0" style="stop-color:#4EB7A3"/>
		<stop  offset="1" style="stop-color:#A0E160"/>
	</linearGradient>
	<path fill="url(#SVGID_1_)" d="M62.789,67.324v0.492C49.5,64.676,38.52,57.973,29.848,47.707L17.332,36.773
		c11.414-1.406,17.672-3.492,18.773-6.258c1.406-1.359,2.109-3.094,2.109-5.203c0-7.5-8.473-11.941-25.418-13.324v44.156H0
		L0.141,0.809l0.246-0.527C5.027,0.094,8.684,0,11.355,0h4.957c17.93,0,29.566,5.391,34.91,16.172
		c0.867,2.813,1.395,5.508,1.582,8.086c0,8.742-3.82,14.391-11.461,16.945h-0.281c6.961,6.656,14.18,12.281,21.656,16.875v0.035
		c1.219,0.352,3.012,0.691,5.379,1.02c1.898,0.094,3.879-0.105,5.941-0.598c0,0.211-0.012,0.533-0.035,0.967
		s-0.34,0.979-0.949,1.635c1.875-0.023,3.691-0.352,5.449-0.984l0.035-0.07l0.176,0.07c-0.023,0.047-0.176,0.633-0.457,1.758
		c-1.477,2.93-4.219,5.051-8.227,6.363c-3.141,0.164-5.531,0.035-7.172-0.387L62.789,67.324z"/>
	<linearGradient id="SVGID_2_" gradientUnits="userSpaceOnUse" x1="79.4707" y1="54.1406" x2="79.4707" y2="3.6563">
		<stop  offset="0" style="stop-color:#4EB7A3"/>
		<stop  offset="1" style="stop-color:#A0E160"/>
	</linearGradient>
	<path fill="url(#SVGID_2_)" d="M68.414,26.895C69,36.34,72.691,41.145,79.488,41.309c6.563-0.75,10.242-5.555,11.039-14.414V3.656
		h12.34v23.238c0,8.578-2.426,15.387-7.277,20.426c-4.383,4.547-9.727,6.82-16.031,6.82c-6.352,0-11.73-2.273-16.137-6.82
		c-4.898-5.039-7.348-11.848-7.348-20.426V3.656h12.34V26.895z"/>
	<linearGradient id="SVGID_3_" gradientUnits="userSpaceOnUse" x1="123.4863" y1="54.0352" x2="123.4863" y2="3.4453">
		<stop  offset="0" style="stop-color:#4EB7A3"/>
		<stop  offset="1" style="stop-color:#A0E160"/>
	</linearGradient>
	<path fill="url(#SVGID_3_)" d="M108.105,3.445h11.883c0.305,0.047,0.457,0.199,0.457,0.457v41.203h18.879v0.492
		c-3.797,5.227-5.895,7.934-6.293,8.121l-25.383,0.316V3.902C107.695,3.598,107.848,3.445,108.105,3.445z"/>
	<linearGradient id="SVGID_4_" gradientUnits="userSpaceOnUse" x1="156.1992" y1="54" x2="156.1992" y2="3.7617">
		<stop  offset="0" style="stop-color:#4EB7A3"/>
		<stop  offset="1" style="stop-color:#A0E160"/>
	</linearGradient>
	<path fill="url(#SVGID_4_)" d="M141.855,3.762h22.254l5.906,10.477c-0.094,0-0.141,0.047-0.141,0.141l-0.246-0.141h-14.555v8.754
		h9.563c0.164,0.047,0.246,0.141,0.246,0.281v10.09c0,0.164-0.082,0.246-0.246,0.246h-9.703v9.563h15.855L170.754,54h-28.898
		c-0.164,0-0.246-0.082-0.246-0.246V4.008C141.633,3.844,141.715,3.762,141.855,3.762z"/>
	<linearGradient id="SVGID_5_" gradientUnits="userSpaceOnUse" x1="194.6074" y1="53.915" x2="194.6074" y2="3.2695">
		<stop  offset="0" style="stop-color:#4EB7A3"/>
		<stop  offset="1" style="stop-color:#A0E160"/>
	</linearGradient>
	<path fill="url(#SVGID_5_)" d="M195.434,3.27c5.883,0,9.996,1.477,12.34,4.43l-0.352,10.02h-0.387c0-1.383-1.406-3.082-4.219-5.098
		c-2.273-1.172-4.5-1.758-6.68-1.758c-5.977,0.821-8.965,2.637-8.965,5.449v0.703c0,2.25,4.16,4.418,12.48,6.504
		c10.102,3.141,15.152,8.016,15.152,14.625c-0.82,10.219-6.504,15.469-17.051,15.75s-18.328-2.32-23.344-7.805l7.98-4.254
		c3.516,2.227,7.477,3.434,11.883,3.621s7.43-0.961,9.07-3.445c0.352-0.633,0.527-1.688,0.527-3.164
		c0-3.867-3.691-6.68-11.074-8.438c-11.039-3.257-16.559-7.546-16.559-12.867v-1.934c0-3.984,3-7.453,9-10.406
		C188.566,3.915,191.965,3.27,195.434,3.27z"/>
</g>
</svg>
