<?xml version="1.0" encoding="utf-8"?>
<!-- Generator: Adobe Illustrator 15.0.0, SVG Export Plug-In . SVG Version: 6.00 Build 0)  -->
<!DOCTYPE svg PUBLIC "-//W3C//DTD SVG 1.1//EN" "http://www.w3.org/Graphics/SVG/1.1/DTD/svg11.dtd">
<svg version="1.1" id="Layer_1" xmlns="http://www.w3.org/2000/svg" xmlns:xlink="http://www.w3.org/1999/xlink" x="0px" y="0px"
	 width="301.395px" height="108.513px" viewBox="0 0 301.395 108.513" enable-background="new 0 0 301.395 108.513"
	 xml:space="preserve">
<g>
	<g opacity="0.5">
		<path fill="#514A8F" d="M11.627,7.984l10.202,40.96L34.046,4.356L46.045,2L26.883,61.688H14.48L0,7.984H11.627z"/>
		<path fill="#514A8F" d="M45.487,7.209h19.628l5.209,9.24c-0.083,0-0.124,0.041-0.124,0.124l-0.218-0.124H57.146v7.721h8.434
			c0.145,0.041,0.217,0.124,0.217,0.248v8.899c0,0.145-0.072,0.217-0.217,0.217h-8.559v8.434h13.984l-0.031,9.551H45.487
			c-0.145,0-0.217-0.072-0.217-0.218V7.426C45.291,7.281,45.363,7.209,45.487,7.209z"/>
		<path fill="#514A8F" d="M83.037,7.116h3.907c14.18,0,23.39,4.258,27.627,12.774c0.682,2.233,1.096,4.362,1.24,6.388
			c0,6.925-3.028,11.39-9.085,13.396h-0.217c1.653,1.24,5.168,4.402,10.542,9.488c5.023,3.597,9.622,5.87,13.798,6.821v0.403
			c-6.284,1.096-11.503,1.85-15.658,2.264c-1.984,0-7.824-4.6-17.52-13.799L87.75,36.17c9.013-1.096,13.964-2.739,14.853-4.931
			c1.096-1.074,1.644-2.449,1.644-4.124c0-5.933-6.315-9.436-18.945-10.511v34.914H74.045l0.124-43.782l0.187-0.435
			C78.014,7.178,80.908,7.116,83.037,7.116z"/>
		<path fill="#514A8F" d="M120.959,6.713h10.542c0.124,0.021,0.187,0.083,0.187,0.187v44.401c0,0.125-0.063,0.187-0.187,0.187
			h-10.542c-0.124,0-0.187-0.062-0.187-0.187V6.899C120.793,6.775,120.855,6.713,120.959,6.713z"/>
		<path fill="#514A8F" d="M136.493,6.837h26.542l0.031,9.551h-15.256l-0.03,8.65h13.239c0.187,0.042,0.279,0.135,0.279,0.279
			l-3.969,9.364l-9.674,0.062v16.868l-11.163-0.031c-0.186,0-0.279-0.093-0.279-0.279V7.116
			C136.234,6.93,136.328,6.837,136.493,6.837z"/>
		<path fill="#514A8F" d="M166.043,6.713h10.542c0.124,0.021,0.187,0.083,0.187,0.187v44.401c0,0.125-0.063,0.187-0.187,0.187
			h-10.542c-0.124,0-0.186-0.062-0.186-0.187V6.899C165.878,6.775,165.939,6.713,166.043,6.713z"/>
		<path fill="#514A8F" d="M181.516,7.209h19.627l5.21,9.24c-0.083,0-0.124,0.041-0.124,0.124l-0.218-0.124h-12.837v7.721h8.435
			c0.145,0.041,0.217,0.124,0.217,0.248v8.899c0,0.145-0.072,0.217-0.217,0.217h-8.559v8.434h13.984l-0.031,9.551h-25.487
			c-0.145,0-0.217-0.072-0.217-0.218V7.426C181.319,7.281,181.392,7.209,181.516,7.209z"/>
		<path fill="#514A8F" d="M210.569,7.24h18.232c4.506,0,9.229,1.612,14.17,4.837c4.444,3.369,7.421,7.617,8.93,12.744
			c0.29,1.323,0.435,2.48,0.435,3.473v1.303c0,0.062-0.031,0.093-0.093,0.093l0.093,0.186c0,7.752-2.408,13.391-7.225,16.915
			s-9.777,5.08-14.884,4.666l-19.875,0.063l0.062-44.123C210.435,7.292,210.486,7.24,210.569,7.24z M221.731,16.729v25.271h4.868
			c5.851,0,9.86-1.003,12.031-3.008c2.356-3.038,3.534-6.14,3.534-9.302c-0.393-5.499-2.19-9.111-5.395-10.837
			c-3.204-1.727-7.421-2.435-12.651-2.124H221.731z"/>
	</g>
	<g opacity="0.5">
		<path fill="#514A8F" d="M159.909,60.854h1.488c7.276,0,13.633,2.832,19.069,8.496c3.493,4.176,5.24,8.848,5.24,14.016
			c0,5.953-2.667,11.286-8,15.999c-4.858,3.949-10.584,5.923-17.178,5.923c-5.975,0-11.452-1.923-16.435-5.768
			c-2.79-2.48-4.537-4.485-5.24-6.015c-1.942-3.308-2.914-6.688-2.914-10.14v-0.435c0-5.891,2.439-11.101,7.317-15.627
			c3.68-3.122,7.628-5.106,11.845-5.954C157.046,61.021,158.647,60.854,159.909,60.854z M147.692,82.684v0.931
			c0,3.308,1.746,6.325,5.24,9.054c2.583,1.592,5.219,2.388,7.906,2.388h0.683c4.506,0,8.289-2.005,11.349-6.016
			c1.137-2.005,1.705-4.01,1.705-6.015c0-4.507-2.408-8.063-7.225-10.667c-2.088-0.909-4.176-1.364-6.264-1.364
			c-4.981,0-8.93,2.119-11.845,6.356C148.209,79.231,147.692,81.01,147.692,82.684z"/>
		<path fill="#514A8F" d="M228.683,60.854v45.581l-29.891-21.054v19.906l-11.225-0.063V63.77h0.186l29.705,18.325V63.986
			L228.683,60.854z"/>
		<path fill="#514A8F" d="M232.62,60.73h10.48c0.269,0.042,0.403,0.176,0.403,0.403v36.341h16.65v0.434
			c-3.349,4.609-5.198,6.997-5.55,7.163l-22.388,0.278V61.134C232.259,60.865,232.393,60.73,232.62,60.73z"/>
		<path fill="#514A8F" d="M261.953,61.351h11.752l10.449,16.187l6.264-16.187l10.977-0.03l-19.597,43.533l-15.38,3.659
			l12.775-19.845L261.953,61.351z"/>
	</g>
</g>
<g>
	<g>
		<linearGradient id="SVGID_1_" gradientUnits="userSpaceOnUse" x1="23.0225" y1="59.6885" x2="23.0225" y2="0">
			<stop  offset="0" style="stop-color:#4EB7A3"/>
			<stop  offset="1" style="stop-color:#A0E160"/>
		</linearGradient>
		<path fill="url(#SVGID_1_)" d="M11.627,5.984l10.202,40.96L34.046,2.356L46.045,0L26.883,59.688H14.48L0,5.984H11.627z"/>
		<linearGradient id="SVGID_2_" gradientUnits="userSpaceOnUse" x1="58.1382" y1="49.5186" x2="58.1382" y2="5.209">
			<stop  offset="0" style="stop-color:#4EB7A3"/>
			<stop  offset="1" style="stop-color:#A0E160"/>
		</linearGradient>
		<path fill="url(#SVGID_2_)" d="M45.487,5.209h19.628l5.209,9.24c-0.083,0-0.124,0.041-0.124,0.124l-0.218-0.124H57.146v7.721
			h8.434c0.145,0.041,0.217,0.124,0.217,0.248v8.899c0,0.145-0.072,0.217-0.217,0.217h-8.559v8.434h13.984l-0.031,9.551H45.487
			c-0.145,0-0.217-0.072-0.217-0.218V5.426C45.291,5.281,45.363,5.209,45.487,5.209z"/>
		<linearGradient id="SVGID_3_" gradientUnits="userSpaceOnUse" x1="102.4473" y1="56.6504" x2="102.4473" y2="5.1162">
			<stop  offset="0" style="stop-color:#4EB7A3"/>
			<stop  offset="1" style="stop-color:#A0E160"/>
		</linearGradient>
		<path fill="url(#SVGID_3_)" d="M83.037,5.116h3.907c14.18,0,23.39,4.258,27.627,12.774c0.682,2.233,1.096,4.362,1.24,6.388
			c0,6.925-3.028,11.39-9.085,13.396h-0.217c1.653,1.24,5.168,4.402,10.542,9.488c5.023,3.597,9.622,5.87,13.798,6.821v0.403
			c-6.284,1.096-11.503,1.85-15.658,2.264c-1.984,0-7.824-4.6-17.52-13.799L87.75,34.17c9.013-1.096,13.964-2.739,14.853-4.931
			c1.096-1.074,1.644-2.449,1.644-4.124c0-5.933-6.315-9.436-18.945-10.511v34.914H74.045l0.124-43.782l0.187-0.435
			C78.014,5.178,80.908,5.116,83.037,5.116z"/>
		<linearGradient id="SVGID_4_" gradientUnits="userSpaceOnUse" x1="126.23" y1="49.4873" x2="126.23" y2="4.7129">
			<stop  offset="0" style="stop-color:#4EB7A3"/>
			<stop  offset="1" style="stop-color:#A0E160"/>
		</linearGradient>
		<path fill="url(#SVGID_4_)" d="M120.959,4.713h10.542c0.124,0.021,0.187,0.083,0.187,0.187v44.401
			c0,0.125-0.063,0.187-0.187,0.187h-10.542c-0.124,0-0.187-0.062-0.187-0.187V4.899C120.793,4.775,120.855,4.713,120.959,4.713z"/>
		<linearGradient id="SVGID_5_" gradientUnits="userSpaceOnUse" x1="149.6401" y1="49.6113" x2="149.6401" y2="4.8369">
			<stop  offset="0" style="stop-color:#4EB7A3"/>
			<stop  offset="1" style="stop-color:#A0E160"/>
		</linearGradient>
		<path fill="url(#SVGID_5_)" d="M136.493,4.837h26.542l0.031,9.551h-15.256l-0.03,8.65h13.239c0.187,0.042,0.279,0.135,0.279,0.279
			l-3.969,9.364l-9.674,0.062v16.868l-11.163-0.031c-0.186,0-0.279-0.093-0.279-0.279V5.116
			C136.234,4.93,136.328,4.837,136.493,4.837z"/>
		<linearGradient id="SVGID_6_" gradientUnits="userSpaceOnUse" x1="171.3145" y1="49.4873" x2="171.3145" y2="4.7129">
			<stop  offset="0" style="stop-color:#4EB7A3"/>
			<stop  offset="1" style="stop-color:#A0E160"/>
		</linearGradient>
		<path fill="url(#SVGID_6_)" d="M166.043,4.713h10.542c0.124,0.021,0.187,0.083,0.187,0.187v44.401
			c0,0.125-0.063,0.187-0.187,0.187h-10.542c-0.124,0-0.186-0.062-0.186-0.187V4.899C165.878,4.775,165.939,4.713,166.043,4.713z"/>
		<linearGradient id="SVGID_7_" gradientUnits="userSpaceOnUse" x1="194.1665" y1="49.5186" x2="194.1665" y2="5.209">
			<stop  offset="0" style="stop-color:#4EB7A3"/>
			<stop  offset="1" style="stop-color:#A0E160"/>
		</linearGradient>
		<path fill="url(#SVGID_7_)" d="M181.516,5.209h19.627l5.21,9.24c-0.083,0-0.124,0.041-0.124,0.124l-0.218-0.124h-12.837v7.721
			h8.435c0.145,0.041,0.217,0.124,0.217,0.248v8.899c0,0.145-0.072,0.217-0.217,0.217h-8.559v8.434h13.984l-0.031,9.551h-25.487
			c-0.145,0-0.217-0.072-0.217-0.218V5.426C181.319,5.281,181.392,5.209,181.516,5.209z"/>
		<linearGradient id="SVGID_8_" gradientUnits="userSpaceOnUse" x1="231.3442" y1="49.5215" x2="231.3442" y2="5.2402">
			<stop  offset="0" style="stop-color:#4EB7A3"/>
			<stop  offset="1" style="stop-color:#A0E160"/>
		</linearGradient>
		<path fill="url(#SVGID_8_)" d="M210.569,5.24h18.232c4.506,0,9.229,1.612,14.17,4.837c4.444,3.369,7.421,7.617,8.93,12.744
			c0.29,1.323,0.435,2.48,0.435,3.473v1.303c0,0.062-0.031,0.093-0.093,0.093l0.093,0.186c0,7.752-2.408,13.391-7.225,16.915
			s-9.777,5.08-14.884,4.666l-19.875,0.063l0.062-44.123C210.435,5.292,210.486,5.24,210.569,5.24z M221.731,14.729v25.271h4.868
			c5.851,0,9.86-1.003,12.031-3.008c2.356-3.038,3.534-6.14,3.534-9.302c-0.393-5.499-2.19-9.111-5.395-10.837
			c-3.204-1.727-7.421-2.435-12.651-2.124H221.731z"/>
	</g>
	<g>
		<linearGradient id="SVGID_9_" gradientUnits="userSpaceOnUse" x1="160.8237" y1="103.2881" x2="160.8237" y2="58.8545">
			<stop  offset="0" style="stop-color:#4EB7A3"/>
			<stop  offset="1" style="stop-color:#A0E160"/>
		</linearGradient>
		<path fill="url(#SVGID_9_)" d="M159.909,58.854h1.488c7.276,0,13.633,2.832,19.069,8.496c3.493,4.176,5.24,8.848,5.24,14.016
			c0,5.953-2.667,11.286-8,15.999c-4.858,3.949-10.584,5.923-17.178,5.923c-5.975,0-11.452-1.923-16.435-5.768
			c-2.79-2.48-4.537-4.485-5.24-6.015c-1.942-3.308-2.914-6.688-2.914-10.14v-0.435c0-5.891,2.439-11.101,7.317-15.627
			c3.68-3.122,7.628-5.106,11.845-5.954C157.046,59.021,158.647,58.854,159.909,58.854z M147.692,80.684v0.931
			c0,3.308,1.746,6.325,5.24,9.054c2.583,1.592,5.219,2.388,7.906,2.388h0.683c4.506,0,8.289-2.005,11.349-6.016
			c1.137-2.005,1.705-4.01,1.705-6.015c0-4.507-2.408-8.063-7.225-10.667c-2.088-0.909-4.176-1.364-6.264-1.364
			c-4.981,0-8.93,2.119-11.845,6.356C148.209,77.231,147.692,79.01,147.692,80.684z"/>
		<linearGradient id="SVGID_10_" gradientUnits="userSpaceOnUse" x1="208.125" y1="104.4355" x2="208.125" y2="58.8545">
			<stop  offset="0" style="stop-color:#4EB7A3"/>
			<stop  offset="1" style="stop-color:#A0E160"/>
		</linearGradient>
		<path fill="url(#SVGID_10_)" d="M228.683,58.854v45.581l-29.891-21.054v19.906l-11.225-0.063V61.77h0.186l29.705,18.325V61.986
			L228.683,58.854z"/>
		<linearGradient id="SVGID_11_" gradientUnits="userSpaceOnUse" x1="246.1855" y1="103.3496" x2="246.1855" y2="58.7305">
			<stop  offset="0" style="stop-color:#4EB7A3"/>
			<stop  offset="1" style="stop-color:#A0E160"/>
		</linearGradient>
		<path fill="url(#SVGID_11_)" d="M232.62,58.73h10.48c0.269,0.042,0.403,0.176,0.403,0.403v36.341h16.65v0.434
			c-3.349,4.609-5.198,6.997-5.55,7.163l-22.388,0.278V59.134C232.259,58.865,232.393,58.73,232.62,58.73z"/>
		<linearGradient id="SVGID_12_" gradientUnits="userSpaceOnUse" x1="281.6738" y1="106.5127" x2="281.6738" y2="59.3203">
			<stop  offset="0" style="stop-color:#4EB7A3"/>
			<stop  offset="1" style="stop-color:#A0E160"/>
		</linearGradient>
		<path fill="url(#SVGID_12_)" d="M261.953,59.351h11.752l10.449,16.187l6.264-16.187l10.977-0.03l-19.597,43.533l-15.38,3.659
			l12.775-19.845L261.953,59.351z"/>
	</g>
</g>
</svg>
