<?xml version="1.0" encoding="utf-8"?>
<!-- Generator: Adobe Illustrator 15.0.0, SVG Export Plug-In . SVG Version: 6.00 Build 0)  -->
<!DOCTYPE svg PUBLIC "-//W3C//DTD SVG 1.1//EN" "http://www.w3.org/Graphics/SVG/1.1/DTD/svg11.dtd">
<svg version="1.1" id="Layer_1" xmlns="http://www.w3.org/2000/svg" xmlns:xlink="http://www.w3.org/1999/xlink" x="0px" y="0px"
	 width="232.052px" height="67.777px" viewBox="0 0 232.052 67.777" enable-background="new 0 0 232.052 67.777"
	 xml:space="preserve">
<g opacity="0.5">
	<g>
		<path fill="#514A8F" d="M18.141,2.105h55.336v0.07L30.551,55.473c5.344-1.313,8.006-0.961,11.34-0.967s7.425,0.61,12.051,1.143
			c0.64,0.073,2.097,0.211,4.395,0.281c8.32,0,13.617-0.996,15.891-2.988c0,2.625-0.914,5.355-2.742,8.191
			c-1.336,2.039-3.691,3.668-7.066,4.887c-2.227,0.586-5.063,0.879-8.508,0.879c-2.484,0-18.187-1.122-24.02-1.205
			S18.391,66.506,0,67.32L47.32,14.27h-29.18c-0.094,0-0.141-0.058-0.141-0.176V2.281C18,2.164,18.047,2.105,18.141,2.105z"/>
	</g>
	<g>
		<path fill="#514A8F" d="M101.023,2h4.043c10.102,0,16.875,0.621,20.32,1.863c6.75,1.876,11.754,5.051,15.012,9.527
			c2.086,3.375,3.129,6.715,3.129,10.02v0.879c0,4.57-1.828,8.731-5.484,12.48c-3.539,2.813-7.594,4.219-12.164,4.219
			c-7.406,0-12.223-2.132-14.449-6.398c-0.516-1.266-0.773-2.473-0.773-3.621v-0.316c0-2.742,0.914-4.535,2.742-5.379
			c1.453-0.585,2.988-0.879,4.605-0.879c2.438,0.141,3.656,0.305,3.656,0.492c-0.609,2.579-0.973,3.985-1.09,4.219
			c-1.5,0-2.25,0.422-2.25,1.266v0.492c0,1.078,1.43,1.735,4.289,1.969c2.977,0,5.309-1.569,6.996-4.711
			c0.375-1.102,0.563-2.086,0.563-2.953c0-3.211-1.406-5.953-4.219-8.227c-3.609-2.765-8.965-4.148-16.066-4.148l-0.105,0.211
			l-0.035,54.668l-12.551,0.105c-0.141,0-0.211-0.07-0.211-0.211l0.035-65.25l0.105-0.211C98.761,2.035,100.062,2,101.023,2z"/>
	</g>
	<g>
		<path fill="#514A8F" d="M165.434,2.141h26.367c6.516,0,13.359,2.344,20.531,7.031c6.422,4.875,10.734,11.027,12.938,18.457
			c0.422,1.898,0.633,3.563,0.633,4.992v1.934c0,0.07-0.047,0.105-0.141,0.105l0.141,0.281c0,11.228-6.539,20.496-19.617,27.809
			c-4.594,2.297-8.73,3.445-12.41,3.445h-32.941v-0.246c1.102-0.422,2.086-1.793,2.953-4.113c0.844-3.258,1.266-5.988,1.266-8.191
			V2.387C165.176,2.224,165.27,2.141,165.434,2.141z M177.07,11.879V56.07h11.531c8.508,0,15.516-2.94,21.023-8.824
			c3.422-4.266,5.133-8.46,5.133-12.586c0-6.469-2.133-11.672-6.398-15.609c-2.719-2.742-5.332-4.5-7.84-5.273
			c-3.211-1.266-8.379-1.898-15.504-1.898H177.07z"/>
	</g>
	<g>
		<path fill="#514A8F" d="M80.891,60.689c0-0.609,0.123-1.189,0.369-1.74s0.58-1.031,1.002-1.441s0.908-0.738,1.459-0.984
			c0.55-0.246,1.143-0.369,1.775-0.369c0.609,0,1.189,0.123,1.74,0.369c0.55,0.246,1.031,0.574,1.441,0.984
			c0.41,0.41,0.738,0.891,0.984,1.441s0.369,1.131,0.369,1.74c0,0.633-0.123,1.23-0.369,1.793s-0.575,1.061-0.984,1.494
			c-0.41,0.434-0.891,0.773-1.441,1.02c-0.551,0.246-1.131,0.369-1.74,0.369c-0.633,0-1.225-0.123-1.775-0.369
			c-0.551-0.246-1.037-0.586-1.459-1.02s-0.756-0.932-1.002-1.494S80.891,61.322,80.891,60.689z"/>
	</g>
	<g>
		<path fill="#514A8F" d="M143.391,60.689c0-0.609,0.123-1.189,0.369-1.74s0.58-1.031,1.002-1.441s0.908-0.738,1.459-0.984
			s1.143-0.369,1.775-0.369c0.609,0,1.189,0.123,1.74,0.369s1.031,0.574,1.441,0.984s0.738,0.891,0.984,1.441
			s0.369,1.131,0.369,1.74c0,0.633-0.123,1.23-0.369,1.793s-0.574,1.061-0.984,1.494s-0.891,0.773-1.441,1.02
			s-1.131,0.369-1.74,0.369c-0.633,0-1.225-0.123-1.775-0.369s-1.037-0.586-1.459-1.02s-0.756-0.932-1.002-1.494
			S143.391,61.322,143.391,60.689z"/>
	</g>
	<g>
		<path fill="#514A8F" d="M222.912,60.689c0-0.609,0.123-1.189,0.369-1.74s0.58-1.031,1.002-1.441s0.908-0.738,1.459-0.984
			c0.55-0.246,1.143-0.369,1.775-0.369c0.609,0,1.189,0.123,1.74,0.369c0.55,0.246,1.031,0.574,1.441,0.984
			c0.409,0.41,0.738,0.891,0.984,1.441s0.369,1.131,0.369,1.74c0,0.633-0.123,1.23-0.369,1.793s-0.575,1.061-0.984,1.494
			c-0.41,0.434-0.892,0.773-1.441,1.02c-0.551,0.246-1.131,0.369-1.74,0.369c-0.633,0-1.226-0.123-1.775-0.369
			c-0.551-0.246-1.037-0.586-1.459-1.02s-0.756-0.932-1.002-1.494S222.912,61.322,222.912,60.689z"/>
	</g>
</g>
<g>
	<g>
		<linearGradient id="SVGID_1_" gradientUnits="userSpaceOnUse" x1="37.1133" y1="65.3203" x2="37.1133" y2="0.1055">
			<stop  offset="0" style="stop-color:#4EB7A3"/>
			<stop  offset="1" style="stop-color:#A0E160"/>
		</linearGradient>
		<path fill="url(#SVGID_1_)" d="M18.141,0.105h55.336v0.07L30.551,53.473c5.344-1.313,8.006-0.961,11.34-0.967
			s7.425,0.61,12.051,1.143c0.64,0.073,2.097,0.211,4.395,0.281c8.32,0,13.617-0.996,15.891-2.988c0,2.625-0.914,5.355-2.742,8.191
			c-1.336,2.039-3.691,3.668-7.066,4.887c-2.227,0.586-5.063,0.879-8.508,0.879c-2.484,0-18.187-1.122-24.02-1.205
			S18.391,64.506,0,65.32L47.32,12.27h-29.18c-0.094,0-0.141-0.058-0.141-0.176V0.281C18,0.164,18.047,0.105,18.141,0.105z"/>
	</g>
	<g>
		<linearGradient id="SVGID_2_" gradientUnits="userSpaceOnUse" x1="120.2539" y1="65.7773" x2="120.2539" y2="0">
			<stop  offset="0" style="stop-color:#4EB7A3"/>
			<stop  offset="1" style="stop-color:#A0E160"/>
		</linearGradient>
		<path fill="url(#SVGID_2_)" d="M101.023,0h4.043c10.102,0,16.875,0.621,20.32,1.863c6.75,1.876,11.754,5.051,15.012,9.527
			c2.086,3.375,3.129,6.715,3.129,10.02v0.879c0,4.57-1.828,8.731-5.484,12.48c-3.539,2.813-7.594,4.219-12.164,4.219
			c-7.406,0-12.223-2.132-14.449-6.398c-0.516-1.266-0.773-2.473-0.773-3.621v-0.316c0-2.742,0.914-4.535,2.742-5.379
			c1.453-0.585,2.988-0.879,4.605-0.879c2.438,0.141,3.656,0.305,3.656,0.492c-0.609,2.579-0.973,3.985-1.09,4.219
			c-1.5,0-2.25,0.422-2.25,1.266v0.492c0,1.078,1.43,1.735,4.289,1.969c2.977,0,5.309-1.569,6.996-4.711
			c0.375-1.102,0.563-2.086,0.563-2.953c0-3.211-1.406-5.953-4.219-8.227c-3.609-2.765-8.965-4.148-16.066-4.148l-0.105,0.211
			l-0.035,54.668l-12.551,0.105c-0.141,0-0.211-0.07-0.211-0.211l0.035-65.25l0.105-0.211C98.761,0.035,100.062,0,101.023,0z"/>
	</g>
	<g>
		<linearGradient id="SVGID_3_" gradientUnits="userSpaceOnUse" x1="193.418" y1="64.1953" x2="193.418" y2="0.1406">
			<stop  offset="0" style="stop-color:#4EB7A3"/>
			<stop  offset="1" style="stop-color:#A0E160"/>
		</linearGradient>
		<path fill="url(#SVGID_3_)" d="M165.434,0.141h26.367c6.516,0,13.359,2.344,20.531,7.031c6.422,4.875,10.734,11.027,12.938,18.457
			c0.422,1.898,0.633,3.563,0.633,4.992v1.934c0,0.07-0.047,0.105-0.141,0.105l0.141,0.281c0,11.228-6.539,20.496-19.617,27.809
			c-4.594,2.297-8.73,3.445-12.41,3.445h-32.941v-0.246c1.102-0.422,2.086-1.793,2.953-4.113c0.844-3.258,1.266-5.988,1.266-8.191
			V0.387C165.176,0.224,165.27,0.141,165.434,0.141z M177.07,9.879V54.07h11.531c8.508,0,15.516-2.94,21.023-8.824
			c3.422-4.266,5.133-8.46,5.133-12.586c0-6.469-2.133-11.672-6.398-15.609c-2.719-2.742-5.332-4.5-7.84-5.273
			c-3.211-1.266-8.379-1.898-15.504-1.898H177.07z"/>
	</g>
	<g>
		<linearGradient id="SVGID_4_" gradientUnits="userSpaceOnUse" x1="85.4609" y1="63.3652" x2="85.4609" y2="54.1543">
			<stop  offset="0" style="stop-color:#4EB7A3"/>
			<stop  offset="0.3079" style="stop-color:#51B8A1"/>
			<stop  offset="0.5073" style="stop-color:#59BD9A"/>
			<stop  offset="0.6759" style="stop-color:#68C48E"/>
			<stop  offset="0.8273" style="stop-color:#7DCF7C"/>
			<stop  offset="0.9661" style="stop-color:#98DD66"/>
			<stop  offset="1" style="stop-color:#A0E160"/>
		</linearGradient>
		<path fill="url(#SVGID_4_)" d="M80.891,58.689c0-0.609,0.123-1.189,0.369-1.74s0.58-1.031,1.002-1.441s0.908-0.738,1.459-0.984
			c0.55-0.246,1.143-0.369,1.775-0.369c0.609,0,1.189,0.123,1.74,0.369c0.55,0.246,1.031,0.574,1.441,0.984
			c0.41,0.41,0.738,0.891,0.984,1.441s0.369,1.131,0.369,1.74c0,0.633-0.123,1.23-0.369,1.793s-0.575,1.061-0.984,1.494
			c-0.41,0.434-0.891,0.773-1.441,1.02c-0.551,0.246-1.131,0.369-1.74,0.369c-0.633,0-1.225-0.123-1.775-0.369
			c-0.551-0.246-1.037-0.586-1.459-1.02s-0.756-0.932-1.002-1.494S80.891,59.322,80.891,58.689z"/>
	</g>
	<g>
		<linearGradient id="SVGID_5_" gradientUnits="userSpaceOnUse" x1="147.9609" y1="63.3652" x2="147.9609" y2="54.1543">
			<stop  offset="0" style="stop-color:#4EB7A3"/>
			<stop  offset="0.3079" style="stop-color:#51B8A1"/>
			<stop  offset="0.5073" style="stop-color:#59BD9A"/>
			<stop  offset="0.6759" style="stop-color:#68C48E"/>
			<stop  offset="0.8273" style="stop-color:#7DCF7C"/>
			<stop  offset="0.9661" style="stop-color:#98DD66"/>
			<stop  offset="1" style="stop-color:#A0E160"/>
		</linearGradient>
		<path fill="url(#SVGID_5_)" d="M143.391,58.689c0-0.609,0.123-1.189,0.369-1.74s0.58-1.031,1.002-1.441s0.908-0.738,1.459-0.984
			s1.143-0.369,1.775-0.369c0.609,0,1.189,0.123,1.74,0.369s1.031,0.574,1.441,0.984s0.738,0.891,0.984,1.441
			s0.369,1.131,0.369,1.74c0,0.633-0.123,1.23-0.369,1.793s-0.574,1.061-0.984,1.494s-0.891,0.773-1.441,1.02
			s-1.131,0.369-1.74,0.369c-0.633,0-1.225-0.123-1.775-0.369s-1.037-0.586-1.459-1.02s-0.756-0.932-1.002-1.494
			S143.391,59.322,143.391,58.689z"/>
	</g>
	<g>
		<linearGradient id="SVGID_6_" gradientUnits="userSpaceOnUse" x1="227.4824" y1="63.3652" x2="227.4824" y2="54.1543">
			<stop  offset="0" style="stop-color:#4EB7A3"/>
			<stop  offset="0.3079" style="stop-color:#51B8A1"/>
			<stop  offset="0.5073" style="stop-color:#59BD9A"/>
			<stop  offset="0.6759" style="stop-color:#68C48E"/>
			<stop  offset="0.8273" style="stop-color:#7DCF7C"/>
			<stop  offset="0.9661" style="stop-color:#98DD66"/>
			<stop  offset="1" style="stop-color:#A0E160"/>
		</linearGradient>
		<path fill="url(#SVGID_6_)" d="M222.912,58.689c0-0.609,0.123-1.189,0.369-1.74s0.58-1.031,1.002-1.441s0.908-0.738,1.459-0.984
			c0.55-0.246,1.143-0.369,1.775-0.369c0.609,0,1.189,0.123,1.74,0.369c0.55,0.246,1.031,0.574,1.441,0.984
			c0.409,0.41,0.738,0.891,0.984,1.441s0.369,1.131,0.369,1.74c0,0.633-0.123,1.23-0.369,1.793s-0.575,1.061-0.984,1.494
			c-0.41,0.434-0.892,0.773-1.441,1.02c-0.551,0.246-1.131,0.369-1.74,0.369c-0.633,0-1.226-0.123-1.775-0.369
			c-0.551-0.246-1.037-0.586-1.459-1.02s-0.756-0.932-1.002-1.494S222.912,59.322,222.912,58.689z"/>
	</g>
</g>
</svg>
